<?xml version="1.0" standalone="no"?>
<!DOCTYPE svg PUBLIC "-//W3C//DTD SVG 20010904//EN"
 "http://www.w3.org/TR/2001/REC-SVG-20010904/DTD/svg10.dtd">
<svg version="1.0" xmlns="http://www.w3.org/2000/svg"
 width="256.000000pt" height="256.000000pt" viewBox="0 0 256.000000 256.000000"
 preserveAspectRatio="xMidYMid meet">

<g transform="translate(0.000000,256.000000) scale(0.100000,-0.100000)"
fill="#000000" stroke="none">
<path d="M0 1280 l0 -1280 1280 0 1280 0 0 1280 0 1280 -1280 0 -1280 0 0
-1280z m1555 996 c289 -84 520 -277 650 -541 83 -169 100 -244 100 -455 0
-211 -14 -271 -105 -455 -108 -220 -253 -365 -465 -470 -171 -84 -243 -100
-460 -99 -166 0 -187 2 -270 27 -291 87 -520 278 -650 542 -83 168 -100 244
-100 450 0 208 17 281 105 460 146 299 385 484 722 560 45 10 109 14 223 11
137 -3 173 -7 250 -30z"/>
<path d="M895 1748 c-49 -3 -108 -10 -130 -15 l-40 -9 -6 -69 c-3 -39 -3 -221
-1 -406 l5 -336 46 9 c59 12 347 15 429 5 l62 -8 -2 403 -3 403 -56 11 c-80
16 -198 21 -304 12z"/>
<path d="M1351 1735 c-35 -8 -65 -16 -67 -17 -3 -4 -5 -343 -4 -652 0 -139 2
-157 16 -152 8 3 66 11 129 18 108 11 253 4 385 -18 l35 -6 -3 404 c-2 221 -6
405 -8 407 -2 2 -34 10 -71 17 -89 17 -330 16 -412 -1z"/>
<path d="M587 1658 c-12 -19 -14 -92 -9 -420 3 -272 8 -402 16 -412 9 -12 120
-15 685 -17 l674 -4 17 25 c16 23 17 56 13 423 -6 441 -4 427 -72 427 l-38 0
-6 -82 c-4 -46 -7 -224 -7 -396 l0 -314 -27 6 c-133 28 -316 32 -460 10 -86
-12 -115 -13 -161 -3 -76 16 -305 16 -417 0 -49 -8 -92 -14 -93 -15 -2 0 -3
178 -2 397 l1 397 -50 0 c-42 0 -53 -4 -64 -22z"/>
</g>
</svg>
